<svg width="28" height="28" fill="none" xmlns="http://www.w3.org/2000/svg"><g clip-path="url(#clip0)" fill="#fff"><path d="M5.472 14.969a1.269 1.269 0 100-2.538 1.269 1.269 0 000 2.538zM22.133 14.969a1.269 1.269 0 100-2.538 1.269 1.269 0 000 2.538z"/><path d="M14 0A13.973 13.973 0 002.728 5.608H6.699a8.665 8.665 0 004.094-1.105c.396-.208.835-.32 1.283-.328a2.92 2.92 0 012.933 2.852 2.893 2.893 0 01-4.284 2.525 10.63 10.63 0 00-5.008-1.365H4.352a9.62 9.62 0 00-3.343.628 14 14 0 000 10.37 7.465 7.465 0 001.897.26h3.357a8.664 8.664 0 004.093-1.106c.396-.208.836-.32 1.283-.327a2.92 2.92 0 012.947 2.838 2.892 2.892 0 01-4.243 2.592 10.63 10.63 0 00-5.008-1.364H3.97c-.415.002-.83.034-1.241.096A14 14 0 1013.999 0zm8.187 17.18a3.385 3.385 0 01-1.61-.41 12.512 12.512 0 00-5.895-1.637h-1.61c-2.07.05-4.096.612-5.895 1.637a3.397 3.397 0 01-5.008-3.056 3.439 3.439 0 013.48-3.33 3.373 3.373 0 011.5.396 10.192 10.192 0 004.763 1.364h3.957a10.192 10.192 0 004.762-1.364 3.373 3.373 0 011.501-.396 3.439 3.439 0 013.48 3.343 3.396 3.396 0 01-3.398 3.452h-.027z"/><path d="M11.585 21.928a1.078 1.078 0 100-2.156 1.078 1.078 0 000 2.156zM12.008 8.078a1.078 1.078 0 100-2.156 1.078 1.078 0 000 2.156z"/></g><defs><clipPath id="clip0"><path fill="#fff" d="M0 0h28v28H0z"/></clipPath></defs></svg>