<svg width="11" height="22" fill="none" xmlns="http://www.w3.org/2000/svg"><path d="M.351 11.717h2.387v9.928c0 .196.157.355.351.355h4.048a.353.353 0 00.35-.355v-9.881h2.745a.352.352 0 00.349-.314l.417-3.655a.357.357 0 00-.087-.277.35.35 0 00-.262-.119H7.488V5.11c0-.692.368-1.042 1.094-1.042h2.067A.353.353 0 0011 3.712V.357a.353.353 0 00-.351-.354H7.8A2.764 2.764 0 007.67 0C7.175 0 5.457.098 4.1 1.36 2.599 2.756 2.808 4.43 2.858 4.72V7.4H.351A.353.353 0 000 7.753v3.608c0 .196.157.355.351.355z" fill="#fff"/></svg>