<svg width="28" height="15" fill="none" xmlns="http://www.w3.org/2000/svg"><path fill-rule="evenodd" clip-rule="evenodd" d="M24.098 9.538c.929.858 1.91 1.666 2.742 2.61.368.42.716.854.983 1.341.378.693.036 1.455-.62 1.497l-4.08-.002c-1.052.083-1.891-.318-2.597-1-.564-.544-1.087-1.123-1.63-1.686a3.806 3.806 0 00-.735-.618c-.556-.342-1.04-.237-1.358.313-.324.559-.398 1.178-.43 1.801-.043.91-.334 1.148-1.298 1.19-2.062.092-4.02-.203-5.837-1.188-1.603-.868-2.846-2.093-3.928-3.48C3.204 7.613 1.591 4.644.141 1.592-.185.906.054.537.855.523 2.185.5 3.516.502 4.85.523c.54.007.899.301 1.107.785.72 1.675 1.601 3.27 2.707 4.748.295.393.595.787 1.022 1.064.473.306.834.205 1.056-.294.141-.316.203-.657.235-.996.105-1.165.12-2.329-.066-3.49-.113-.725-.544-1.194-1.308-1.332C9.212.937 9.27.8 9.459.59c.327-.364.636-.59 1.25-.59h4.61c.726.136.887.444.987 1.136l.004 4.847c-.008.268.141 1.062.65 1.239.408.126.676-.183.921-.427 1.104-1.11 1.892-2.42 2.595-3.777.313-.597.581-1.216.841-1.835.193-.46.496-.686 1.043-.676l4.436.004c.132 0 .265.002.393.022.747.12.952.425.721 1.116-.364 1.085-1.072 1.988-1.764 2.896-.74.97-1.531 1.905-2.265 2.88-.674.89-.62 1.34.217 2.113z" fill="#fff"/></svg>